<svg xmlns="http://www.w3.org/2000/svg" xmlns:xlink="http://www.w3.org/1999/xlink" width="187.5" viewBox="0 0 187.5 112.5" height="112.5" version="1.0"><defs><clipPath id="a"><path d="M 39 18 L 155 18 L 155 101 L 39 101 Z M 39 18"/></clipPath><clipPath id="b"><path d="M 31.332031 17.910156 L 150.773438 8.808594 L 157.316406 94.660156 L 37.875 103.757812 Z M 31.332031 17.910156"/></clipPath><clipPath id="c"><path d="M 31.332031 17.910156 L 150.773438 8.808594 L 157.316406 94.660156 L 37.875 103.757812 Z M 31.332031 17.910156"/></clipPath><clipPath id="d"><path d="M 35 13 L 151 13 L 151 97 L 35 97 Z M 35 13"/></clipPath><clipPath id="e"><path d="M 31.332031 17.910156 L 150.773438 8.808594 L 157.316406 94.660156 L 37.875 103.757812 Z M 31.332031 17.910156"/></clipPath><clipPath id="f"><path d="M 31.332031 17.910156 L 150.773438 8.808594 L 157.316406 94.660156 L 37.875 103.757812 Z M 31.332031 17.910156"/></clipPath><clipPath id="g"><path d="M 33 12 L 152 12 L 152 98 L 33 98 Z M 33 12"/></clipPath><clipPath id="h"><path d="M 31.332031 17.910156 L 150.773438 8.808594 L 157.316406 94.660156 L 37.875 103.757812 Z M 31.332031 17.910156"/></clipPath><clipPath id="i"><path d="M 31.332031 17.910156 L 150.773438 8.808594 L 157.316406 94.660156 L 37.875 103.757812 Z M 31.332031 17.910156"/></clipPath><g id="j"><path d="M 8.078125 -12 C 7.890625 -13.25 7.4375 -13.816406 6.71875 -13.703125 C 5.8125 -13.566406 5.050781 -12.988281 4.4375 -11.96875 C 3.96875 -11.164062 3.625 -10.109375 3.40625 -8.796875 C 3.226562 -7.722656 3.207031 -6.738281 3.34375 -5.84375 C 3.4375 -5.238281 3.753906 -4.828125 4.296875 -4.609375 C 4.472656 -4.523438 4.660156 -4.5 4.859375 -4.53125 C 5.546875 -4.632812 6.117188 -4.960938 6.578125 -5.515625 C 7.035156 -6.078125 7.390625 -6.726562 7.640625 -7.46875 C 7.898438 -8.21875 8.0625 -9 8.125 -9.8125 C 8.195312 -10.625 8.179688 -11.351562 8.078125 -12 Z M 11.046875 -13.90625 C 11.191406 -12.988281 11.21875 -11.957031 11.125 -10.8125 C 11.03125 -9.664062 10.832031 -8.59375 10.53125 -7.59375 C 10.226562 -6.59375 9.832031 -5.679688 9.34375 -4.859375 C 8.863281 -4.035156 8.34375 -3.316406 7.78125 -2.703125 C 6.613281 -1.453125 5.410156 -0.734375 4.171875 -0.546875 C 3.140625 -0.390625 2.269531 -0.640625 1.5625 -1.296875 C 0.769531 -2.015625 0.253906 -3.164062 0.015625 -4.75 C -0.242188 -6.457031 -0.125 -8.359375 0.375 -10.453125 C 0.863281 -12.546875 1.644531 -14.351562 2.71875 -15.875 C 3.90625 -17.5 5.265625 -18.425781 6.796875 -18.65625 C 8.054688 -18.84375 9.054688 -18.472656 9.796875 -17.546875 C 10.378906 -16.796875 10.796875 -15.582031 11.046875 -13.90625 Z M 11.046875 -13.90625"/></g><g id="k"><path d="M 0.1875 0.015625 C 0.582031 -8.097656 0.703125 -13.863281 0.546875 -17.28125 C 1.984375 -17.382812 3.226562 -17.519531 4.28125 -17.6875 C 4.03125 -14.445312 3.882812 -12.1875 3.84375 -10.90625 L 6.0625 -11.5 C 6.101562 -12.613281 6.132812 -13.695312 6.15625 -14.75 C 6.175781 -15.800781 6.234375 -16.890625 6.328125 -18.015625 C 6.921875 -18.210938 7.546875 -18.382812 8.203125 -18.53125 C 8.867188 -18.6875 9.332031 -18.789062 9.59375 -18.84375 L 9.96875 -18.953125 C 9.59375 -16.441406 9.382812 -12.972656 9.34375 -8.546875 C 9.300781 -6.535156 9.289062 -4.488281 9.3125 -2.40625 L 5.796875 -1.453125 C 5.835938 -2.398438 5.875 -3.289062 5.90625 -4.125 C 5.9375 -4.957031 5.972656 -5.78125 6.015625 -6.59375 C 6.054688 -7.414062 6.085938 -8.117188 6.109375 -8.703125 L 3.875 -8.171875 C 3.832031 -6.210938 3.75 -3.910156 3.625 -1.265625 Z M 0.1875 0.015625"/></g><g id="m"><path d="M 0.203125 0.015625 C 0.472656 -7.160156 0.601562 -12.851562 0.59375 -17.0625 L 4.28125 -17.890625 C 4.070312 -15.285156 3.929688 -12.957031 3.859375 -10.90625 L 6.078125 -11.5 C 6.128906 -12.613281 6.160156 -13.695312 6.171875 -14.75 C 6.191406 -15.800781 6.25 -16.890625 6.34375 -18.015625 C 6.9375 -18.210938 7.5625 -18.382812 8.21875 -18.53125 C 8.882812 -18.6875 9.347656 -18.789062 9.609375 -18.84375 L 10 -18.953125 C 9.625 -16.441406 9.410156 -12.972656 9.359375 -8.546875 C 9.328125 -6.535156 9.316406 -4.492188 9.328125 -2.421875 L 5.8125 -1.453125 C 5.851562 -2.398438 5.890625 -3.289062 5.921875 -4.125 C 5.960938 -4.957031 6 -5.785156 6.03125 -6.609375 C 6.070312 -7.429688 6.101562 -8.128906 6.125 -8.703125 L 3.90625 -8.171875 C 3.851562 -6.210938 3.765625 -3.910156 3.640625 -1.265625 Z M 0.203125 0.015625"/></g><g id="n"><path d="M 0.1875 -0.015625 L 0.703125 -16.828125 L 7.875 -18.5625 C 7.820312 -18.207031 7.785156 -17.863281 7.765625 -17.53125 C 7.742188 -17.207031 7.71875 -16.875 7.6875 -16.53125 C 7.664062 -16.195312 7.644531 -15.910156 7.625 -15.671875 C 7.1875 -15.566406 6.578125 -15.457031 5.796875 -15.34375 L 4.25 -15.109375 L 4.078125 -10.84375 C 4.890625 -11.007812 5.570312 -11.140625 6.125 -11.234375 C 6.675781 -11.335938 7.035156 -11.40625 7.203125 -11.4375 C 7.210938 -11.007812 7.222656 -10.582031 7.234375 -10.15625 C 7.242188 -9.738281 7.242188 -9.300781 7.234375 -8.84375 C 7.066406 -8.8125 6.8125 -8.757812 6.46875 -8.6875 C 6.132812 -8.625 5.78125 -8.554688 5.40625 -8.484375 C 5.03125 -8.421875 4.609375 -8.347656 4.140625 -8.265625 L 4.015625 -3.90625 L 7.265625 -4.953125 L 7.4375 -2.28125 Z M 0.1875 -0.015625"/></g><g id="o"><path d="M 6.96875 -1.4375 C 5.226562 -5.050781 4.296875 -7.125 4.171875 -7.65625 L 3.890625 -7.515625 C 3.867188 -6.804688 3.832031 -5.816406 3.78125 -4.546875 C 3.726562 -3.273438 3.691406 -2.265625 3.671875 -1.515625 L 0.09375 0 C 0.5 -7.769531 0.640625 -13.257812 0.515625 -16.46875 C 2.160156 -17.28125 4.0625 -17.851562 6.21875 -18.1875 C 7.84375 -18.4375 8.882812 -18.019531 9.34375 -16.9375 C 9.488281 -16.59375 9.597656 -16.164062 9.671875 -15.65625 C 9.753906 -15.144531 9.734375 -14.578125 9.609375 -13.953125 C 9.492188 -13.335938 9.296875 -12.734375 9.015625 -12.140625 C 8.429688 -10.929688 7.640625 -9.953125 6.640625 -9.203125 C 7.421875 -8.023438 8.125 -6.914062 8.75 -5.875 C 9.375 -4.832031 9.898438 -3.953125 10.328125 -3.234375 Z M 5.171875 -14.75 L 4.171875 -14.578125 L 3.984375 -10.8125 C 4.578125 -10.957031 5.273438 -11.453125 6.078125 -12.296875 C 6.910156 -13.160156 7.289062 -13.820312 7.21875 -14.28125 C 7.15625 -14.71875 6.707031 -14.90625 5.875 -14.84375 C 5.632812 -14.8125 5.398438 -14.78125 5.171875 -14.75 Z M 5.171875 -14.75"/></g><g id="p"><path d="M 8.078125 -12 C 7.890625 -13.25 7.4375 -13.816406 6.71875 -13.703125 C 5.8125 -13.566406 5.050781 -12.988281 4.4375 -11.96875 C 3.96875 -11.164062 3.625 -10.109375 3.40625 -8.796875 C 3.226562 -7.722656 3.207031 -6.738281 3.34375 -5.84375 C 3.4375 -5.238281 3.753906 -4.828125 4.296875 -4.609375 C 4.472656 -4.523438 4.660156 -4.5 4.859375 -4.53125 C 5.546875 -4.632812 6.117188 -4.960938 6.578125 -5.515625 C 7.035156 -6.078125 7.390625 -6.726562 7.640625 -7.46875 C 7.898438 -8.21875 8.0625 -9 8.125 -9.8125 C 8.195312 -10.625 8.179688 -11.351562 8.078125 -12 Z M 11.046875 -13.90625 C 11.191406 -12.988281 11.21875 -11.957031 11.125 -10.8125 C 11.03125 -9.664062 10.832031 -8.59375 10.53125 -7.59375 C 10.226562 -6.59375 9.832031 -5.679688 9.34375 -4.859375 C 8.863281 -4.035156 8.34375 -3.316406 7.78125 -2.703125 C 6.613281 -1.453125 5.410156 -0.734375 4.171875 -0.546875 C 3.140625 -0.390625 2.269531 -0.640625 1.5625 -1.296875 C 0.769531 -2.015625 0.253906 -3.164062 0.015625 -4.75 C -0.242188 -6.457031 -0.125 -8.359375 0.375 -10.453125 C 0.863281 -12.546875 1.644531 -14.351562 2.71875 -15.875 C 3.90625 -17.5 5.265625 -18.425781 6.796875 -18.65625 C 8.054688 -18.84375 9.054688 -18.472656 9.796875 -17.546875 C 10.378906 -16.796875 10.796875 -15.582031 11.046875 -13.90625 Z M 11.046875 -13.90625"/></g><g id="q"><path d="M 6.609375 -13.03125 C 6.640625 -13.34375 6.628906 -13.660156 6.578125 -13.984375 C 6.523438 -14.316406 6.398438 -14.570312 6.203125 -14.75 C 6.003906 -14.925781 5.8125 -15 5.625 -14.96875 C 5.4375 -14.945312 5.257812 -14.878906 5.09375 -14.765625 C 4.9375 -14.648438 4.78125 -14.5 4.625 -14.3125 C 4.257812 -13.914062 4.109375 -13.515625 4.171875 -13.109375 C 4.234375 -12.710938 4.382812 -12.40625 4.625 -12.1875 C 4.875 -11.976562 5.164062 -11.789062 5.5 -11.625 C 5.832031 -11.457031 6.195312 -11.289062 6.59375 -11.125 C 7 -10.957031 7.382812 -10.722656 7.75 -10.421875 C 8.59375 -9.691406 9.117188 -8.632812 9.328125 -7.25 C 9.585938 -5.570312 9.1875 -4.09375 8.125 -2.8125 C 7.113281 -1.582031 5.71875 -0.828125 3.9375 -0.546875 C 2.625 -0.347656 1.3125 -0.851562 0 -2.0625 L 1.1875 -5.6875 C 1.46875 -5.289062 1.941406 -4.972656 2.609375 -4.734375 C 3.253906 -4.453125 3.722656 -4.332031 4.015625 -4.375 C 4.316406 -4.425781 4.5625 -4.492188 4.75 -4.578125 C 4.945312 -4.671875 5.117188 -4.789062 5.265625 -4.9375 C 5.609375 -5.269531 5.75 -5.625 5.6875 -6 C 5.625 -6.382812 5.445312 -6.710938 5.15625 -6.984375 C 4.875 -7.265625 4.535156 -7.523438 4.140625 -7.765625 C 3.753906 -8.003906 3.328125 -8.234375 2.859375 -8.453125 C 2.398438 -8.679688 1.972656 -8.9375 1.578125 -9.21875 C 0.628906 -9.832031 0.09375 -10.550781 -0.03125 -11.375 C -0.15625 -12.195312 -0.0351562 -12.988281 0.328125 -13.75 C 0.691406 -14.507812 1.191406 -15.195312 1.828125 -15.8125 C 2.460938 -16.425781 3.179688 -16.941406 3.984375 -17.359375 C 4.785156 -17.785156 5.476562 -18.039062 6.0625 -18.125 C 6.644531 -18.21875 7.128906 -18.238281 7.515625 -18.1875 C 7.898438 -18.144531 8.242188 -18.039062 8.546875 -17.875 C 9.203125 -17.476562 9.601562 -16.816406 9.75 -15.890625 C 9.78125 -15.660156 9.789062 -15.4375 9.78125 -15.21875 C 9.769531 -15 9.773438 -14.769531 9.796875 -14.53125 Z M 6.609375 -13.03125"/></g><g id="r"><path d="M 6.3125 -18.546875 C 5.78125 -16.484375 5.328125 -14.425781 4.953125 -12.375 C 4.578125 -10.320312 4.203125 -8.253906 3.828125 -6.171875 C 3.378906 -6.109375 2.929688 -6.023438 2.484375 -5.921875 C 2.046875 -5.828125 1.609375 -5.726562 1.171875 -5.625 C 1.359375 -7.570312 1.535156 -9.519531 1.703125 -11.46875 C 1.867188 -13.414062 2.050781 -15.367188 2.25 -17.328125 C 2.53125 -17.410156 2.859375 -17.503906 3.234375 -17.609375 C 3.609375 -17.722656 3.976562 -17.835938 4.34375 -17.953125 C 4.71875 -18.066406 5.082031 -18.175781 5.4375 -18.28125 C 5.800781 -18.382812 6.09375 -18.472656 6.3125 -18.546875 Z M 2.109375 0.234375 C 1.710938 0.296875 1.378906 0.28125 1.109375 0.1875 C 0.835938 0.09375 0.609375 -0.0351562 0.421875 -0.203125 C -0.00390625 -0.578125 -0.257812 -1.050781 -0.34375 -1.625 C -0.488281 -2.601562 -0.164062 -3.359375 0.625 -3.890625 C 0.894531 -4.066406 1.222656 -4.1875 1.609375 -4.25 C 2.503906 -4.382812 3.203125 -4.273438 3.703125 -3.921875 C 4.210938 -3.578125 4.507812 -3.132812 4.59375 -2.59375 C 4.6875 -1.945312 4.523438 -1.359375 4.109375 -0.828125 C 3.628906 -0.242188 2.960938 0.109375 2.109375 0.234375 Z M 2.109375 0.234375"/></g></defs><g clip-path="url(#a)"><g clip-path="url(#b)"><g clip-path="url(#c)"><path fill="#AA14F0" d="M 100.875 85.863281 L 122.402344 90.964844 C 126.019531 87.054688 129.3125 82.867188 133 79.859375 C 138.203125 80.976562 151.632812 83.285156 153.796875 84.03125 L 147.398438 67.25 L 154.128906 52.804688 L 145.332031 40.144531 L 147.457031 20.59375 L 128.109375 27.519531 L 111.4375 18.1875 L 92.707031 33.246094 L 73.203125 22.3125 L 60.09375 36.035156 L 39.160156 33.996094 L 49.171875 50.800781 L 40.230469 67.839844 L 51.214844 77.605469 L 46.511719 98.867188 L 65.054688 89.277344 L 77.671875 100.734375 Z M 100.875 85.863281" fill-opacity=".502" fill-rule="evenodd"/></g></g></g><g clip-path="url(#d)"><g clip-path="url(#e)"><g clip-path="url(#f)"><path fill="#FFF" d="M 96.800781 81.136719 L 118.328125 86.238281 C 121.945312 82.328125 125.242188 78.140625 128.925781 75.132812 C 134.132812 76.25 147.558594 78.558594 149.722656 79.304688 L 143.324219 62.523438 L 150.054688 48.074219 L 141.261719 35.417969 L 143.386719 15.867188 L 124.035156 22.792969 L 107.363281 13.460938 L 88.636719 28.519531 L 69.132812 17.585938 L 56.023438 31.308594 L 35.085938 29.265625 L 45.101562 46.074219 L 36.160156 63.113281 L 47.144531 72.878906 L 42.4375 94.140625 L 60.980469 84.546875 L 73.597656 96.007812 Z M 96.800781 81.136719" fill-rule="evenodd"/></g></g></g><g clip-path="url(#g)"><g clip-path="url(#h)"><g clip-path="url(#i)"><path transform="matrix(.2497 -.01902 .01913 .25117 25.882 7.26)" fill="none" stroke-linejoin="round" d="M 259.973605 313.826174 L 344.143716 340.512146 C 359.732712 326.124742 374.130414 310.542895 389.710116 299.747405 C 410.104595 305.739944 462.863102 318.927012 471.253651 322.532973 L 450.866652 254.175659 L 482.048953 199.008664 L 450.876161 146.257899 L 465.267876 69.507795 L 386.113005 91.08765 L 322.55964 49.119741 L 243.426447 103.081447 L 169.082305 53.919812 L 112.720864 104.287155 L 29.971622 89.886362 L 64.753245 159.442694 L 23.981849 224.194754 L 64.757203 266.163935 L 39.565373 348.908087 L 116.309866 316.523361 L 163.07251 365.695743 Z M 259.973605 313.826174" stroke="#000" stroke-width="10"/></g></g></g><g><use x="50.22" y="70.54" xmlns:xlink="http://www.w3.org/1999/xlink" xlink:href="#j" xlink:type="simple" xlink:actuate="onLoad" xlink:show="embed"/></g><g><use x="61.569" y="68.808" xmlns:xlink="http://www.w3.org/1999/xlink" xlink:href="#k" xlink:type="simple" xlink:actuate="onLoad" xlink:show="embed"/></g><g><use x="71.727" y="67.257" xmlns:xlink="http://www.w3.org/1999/xlink" xlink:href="#l" xlink:type="simple" xlink:actuate="onLoad" xlink:show="embed"/></g><g><use x="76.221" y="66.571" xmlns:xlink="http://www.w3.org/1999/xlink" xlink:href="#m" xlink:type="simple" xlink:actuate="onLoad" xlink:show="embed"/></g><g><use x="86.401" y="65.017" xmlns:xlink="http://www.w3.org/1999/xlink" xlink:href="#n" xlink:type="simple" xlink:actuate="onLoad" xlink:show="embed"/></g><g><use x="94.245" y="63.82" xmlns:xlink="http://www.w3.org/1999/xlink" xlink:href="#o" xlink:type="simple" xlink:actuate="onLoad" xlink:show="embed"/></g><g><use x="104.47" y="62.259" xmlns:xlink="http://www.w3.org/1999/xlink" xlink:href="#p" xlink:type="simple" xlink:actuate="onLoad" xlink:show="embed"/></g><g><use x="115.819" y="60.526" xmlns:xlink="http://www.w3.org/1999/xlink" xlink:href="#n" xlink:type="simple" xlink:actuate="onLoad" xlink:show="embed"/></g><g><use x="123.662" y="59.329" xmlns:xlink="http://www.w3.org/1999/xlink" xlink:href="#q" xlink:type="simple" xlink:actuate="onLoad" xlink:show="embed"/></g><g><use x="133.55" y="57.819" xmlns:xlink="http://www.w3.org/1999/xlink" xlink:href="#r" xlink:type="simple" xlink:actuate="onLoad" xlink:show="embed"/></g></svg>